<svg width="200" height="255" viewBox="0 0 200 255" fill="none" xmlns="http://www.w3.org/2000/svg">
<path d="M148.5 196.098C153.493 196.098 157.738 194.05 161.233 189.954C164.728 185.858 166.476 180.979 166.476 175.316C166.476 169.653 164.721 164.816 161.211 160.804C157.701 156.793 153.468 154.787 148.513 154.787C143.558 154.787 139.288 156.781 135.704 160.769C132.121 164.757 130.329 169.599 130.329 175.296C130.329 180.992 132.119 185.884 135.701 189.969C139.282 194.055 143.548 196.098 148.5 196.098ZM148.304 237.185C154.681 237.185 160.463 235.621 165.651 232.491C170.839 229.361 175.159 224.988 178.61 219.372C173.852 216.283 168.977 213.954 163.985 212.387C158.993 210.819 153.801 210.035 148.41 210.035C143.019 210.035 137.792 210.819 132.729 212.387C127.667 213.954 122.822 216.283 118.194 219.372C121.646 224.988 125.933 229.361 131.056 232.491C136.179 235.621 141.928 237.185 148.304 237.185ZM148.778 254.929C134.638 254.929 122.586 249.213 112.623 237.779C102.66 226.346 97.6791 212.619 97.6791 196.598C97.6791 180.309 102.66 166.455 112.621 155.035C122.583 143.615 134.668 137.905 148.876 137.905C162.951 137.905 174.99 143.615 184.994 155.035C194.998 166.455 200 180.309 200 196.598C200 212.619 194.998 226.346 184.994 237.779C174.99 249.213 162.918 254.929 148.778 254.929ZM88.1821 254.67C62.8832 247.021 41.8615 230.067 25.117 203.807C8.37233 177.547 0 147.672 0 114.182V37.7276L88.1821 0L176.364 37.7276V120.901C172.254 118.771 167.814 117.138 163.043 116.004C158.272 114.87 153.538 114.303 148.84 114.303C128.965 114.303 112.028 122.325 98.0277 138.369C84.0278 154.412 77.0279 173.822 77.0279 196.598C77.0279 206.641 78.6608 216.432 81.9267 225.97C85.1926 235.508 89.858 244.038 95.9228 251.561C94.6314 252.307 93.3287 252.9 92.0148 253.34C90.7007 253.779 89.4231 254.223 88.1821 254.67Z" fill="#1c1e21"/>
</svg>
