<svg width="200" height="226" viewBox="0 0 200 226" fill="none" xmlns="http://www.w3.org/2000/svg">
<path d="M22.2222 225.75C16.1111 225.75 10.8796 223.539 6.52778 219.118C2.17593 214.697 0 209.383 0 203.175V45.1499C0 38.9418 2.17593 33.6273 6.52778 29.2063C10.8796 24.7854 16.1111 22.575 22.2222 22.575H68.8889C71.4815 15.8025 75.5556 10.3469 81.1111 6.20811C86.6667 2.06937 92.963 0 100 0C107.037 0 113.333 2.06937 118.889 6.20811C124.444 10.3469 128.519 15.8025 131.111 22.575H177.778C183.889 22.575 189.12 24.7854 193.472 29.2063C197.824 33.6273 200 38.9418 200 45.1499V203.175C200 209.383 197.824 214.697 193.472 219.118C189.12 223.539 183.889 225.75 177.778 225.75H22.2222ZM100 36.6843C102.407 36.6843 104.398 35.8848 105.972 34.2857C107.546 32.6867 108.333 30.6643 108.333 28.2187C108.333 25.7731 107.546 23.7507 105.972 22.1517C104.398 20.5526 102.407 19.7531 100 19.7531C97.5926 19.7531 95.6019 20.5526 94.0278 22.1517C92.4537 23.7507 91.6667 25.7731 91.6667 28.2187C91.6667 30.6643 92.4537 32.6867 94.0278 34.2857C95.6019 35.8848 97.5926 36.6843 100 36.6843ZM100 135.45C110.741 135.45 119.907 131.593 127.5 123.88C135.093 116.167 138.889 106.855 138.889 95.9436C138.889 85.0323 135.093 75.7202 127.5 68.0071C119.907 60.2939 110.741 56.4374 100 56.4374C89.2593 56.4374 80.0926 60.2939 72.5 68.0071C64.9074 75.7202 61.1111 85.0323 61.1111 95.9436C61.1111 106.855 64.9074 116.167 72.5 123.88C80.0926 131.593 89.2593 135.45 100 135.45ZM22.2222 203.175H177.778V190.194C167.778 180.223 156.157 172.369 142.917 166.631C129.676 160.894 115.37 158.025 100 158.025C84.6296 158.025 70.3241 160.894 57.0833 166.631C43.8426 172.369 32.2222 180.223 22.2222 190.194V203.175Z" fill="#1c1e21"/>
</svg>
